<?xml version="1.0" encoding="UTF-8" standalone="no"?>
<svg
   xmlns:dc="http://purl.org/dc/elements/1.1/"
   xmlns:cc="http://creativecommons.org/ns#"
   xmlns:rdf="http://www.w3.org/1999/02/22-rdf-syntax-ns#"
   xmlns:svg="http://www.w3.org/2000/svg"
   xmlns="http://www.w3.org/2000/svg"
   xmlns:sodipodi="http://sodipodi.sourceforge.net/DTD/sodipodi-0.dtd"
   xmlns:inkscape="http://www.inkscape.org/namespaces/inkscape"
   inkscape:version="1.0 (4035a4fb49, 2020-05-01)"
   sodipodi:docname="triggers.svg"
   xml:space="preserve"
   style="enable-background:new -859 495.2 199.9 90.8;"
   viewBox="-859 495.2 199.9 90.8"
   height="90.8px"
   width="199.9px"
   y="0px"
   x="0px"
   id="Layer_1"
   version="1.1"><metadata
   id="metadata170"><rdf:RDF><cc:Work
       rdf:about=""><dc:format>image/svg+xml</dc:format><dc:type
         rdf:resource="http://purl.org/dc/dcmitype/StillImage" /><dc:title></dc:title></cc:Work></rdf:RDF></metadata><defs
   id="defs168" /><sodipodi:namedview
   inkscape:current-layer="Layer_1"
   inkscape:window-maximized="1"
   inkscape:window-y="-9"
   inkscape:window-x="-9"
   inkscape:cy="40.421321"
   inkscape:cx="113.71092"
   inkscape:zoom="4.9628356"
   showgrid="true"
   id="namedview166"
   inkscape:window-height="1001"
   inkscape:window-width="1920"
   inkscape:pageshadow="2"
   inkscape:pageopacity="0"
   guidetolerance="10"
   gridtolerance="10"
   objecttolerance="10"
   borderopacity="1"
   bordercolor="#666666"
   pagecolor="#ffffff"><inkscape:grid
     id="grid556"
     type="xygrid" /></sodipodi:namedview>
<style
   id="style131"
   type="text/css">
	.st0{fill:#3ED8D2;}
	.st1{fill:#61E0DF;}
	.st2{opacity:8.000000e-002;}
</style>
<g
   id="g147">
	<g
   id="g137">
		<path
   id="path133"
   d="m -659.1,586 c 0,0 -32.7,-3.2 -50.6,-3.2 -17.9,0 -48.3,2.4 -48.3,2.4 0,0 3.1,-44.7 4.8,-52 1.6,-7.3 7.7,-21.3 16.9,-27.9 9.2,-6.7 12,-10.1 22.8,-10.1 10.8,0 25.4,6.4 34.6,21.4 9.1,15 19.8,69.4 19.8,69.4 z"
   class="st0" />
		<path
   id="path135"
   d="m -757.5,578.4 c 0,0 26.1,-4.4 49,-4.4 22.8,0 47.9,4.4 47.9,4.4 1,4.7 1.6,7.6 1.6,7.6 0,0 -32.7,-3.2 -50.6,-3.2 -17.9,0 -48.3,2.4 -48.3,2.4 0,0 0,-2.7 0.4,-6.8 z"
   class="st1" />
	</g>
	<g
   id="g145"
   class="st2">
		<g
   id="g141">
			<path
   id="path139"
   d="m -707.5,560.9 c -2.1,1.7 -3.2,2.6 -3.2,2.6 -1.2,1.2 -1.9,2.7 -2,4.5 h 9.8 v -2.6 h -6.2 c 0.3,-0.5 1,-1.2 2.1,-1.9 1.4,-0.9 2.3,-1.6 2.7,-2.1 0.9,-1 1.3,-2.1 1.3,-3.3 0,-1.4 -0.5,-2.5 -1.4,-3.3 -0.9,-0.8 -2.1,-1.2 -3.5,-1.2 -3.1,0 -4.7,1.7 -4.7,5 h 2.7 c 0,-1.8 0.7,-2.7 2.1,-2.7 1.3,0 2,0.7 2,2.1 0,1.1 -0.6,2 -1.7,2.9 z" />
		</g>
		<path
   id="path143"
   d="m -725.1,562.4 h 3 c 1.5,0 2.3,0.6 2.4,1.9 0.1,1.2 0.2,2.5 0.3,3.8 h 3.3 v -0.4 c -0.5,-0.2 -0.7,-0.7 -0.7,-1.5 0,-0.2 0,-0.4 0.1,-0.8 v -0.7 c 0,-1.7 -0.6,-2.9 -1.8,-3.5 1.4,-0.5 2.2,-1.6 2.2,-3.4 0,-1.3 -0.4,-2.3 -1.3,-3 -0.8,-0.7 -1.9,-1 -3.2,-1 h -7.3 V 568 h 3 z m 0,-6.2 h 3.7 c 1.4,0 2.1,0.6 2.1,1.9 0,1.3 -0.8,1.9 -2.3,1.9 h -3.5 z" />
	</g>
</g>
<g
   style="mix-blend-mode:normal"
   id="g163">
	<g
   id="g153">
		<path
   id="path149"
   d="m -859,586 c 0,0 32.7,-3.2 50.6,-3.2 17.9,0 48.3,2.4 48.3,2.4 0,0 -3.1,-44.7 -4.8,-52 -1.6,-7.3 -7.7,-21.3 -16.9,-27.9 -9.2,-6.6 -12,-10.1 -22.8,-10.1 -10.8,0 -25.4,6.4 -34.6,21.4 -9.1,15 -19.8,69.4 -19.8,69.4 z"
   class="st0" />
		<path
   id="path151"
   d="m -760.6,578.4 c 0,0 -26.1,-4.4 -49,-4.4 -22.8,0 -47.9,4.4 -47.9,4.4 -1,4.7 -1.6,7.6 -1.6,7.6 0,0 32.7,-3.2 50.6,-3.2 17.9,0 48.3,2.4 48.3,2.4 0,0 0,-2.7 -0.4,-6.8 z"
   class="st1" />
	</g>
	<g
   id="g161"
   class="st2">
		<g
   id="g157">
			<path
   id="path155"
   d="m -794.5,560.9 c -2.1,1.7 -3.2,2.6 -3.2,2.6 -1.2,1.2 -1.9,2.7 -2,4.5 h 9.8 v -2.6 h -6.2 c 0.3,-0.5 1,-1.2 2.1,-1.9 1.4,-0.9 2.3,-1.6 2.7,-2.1 0.9,-1 1.3,-2.1 1.3,-3.3 0,-1.4 -0.5,-2.5 -1.4,-3.3 -0.9,-0.8 -2.1,-1.2 -3.5,-1.2 -3.1,0 -4.7,1.7 -4.7,5 h 2.7 c 0,-1.8 0.7,-2.7 2.1,-2.7 1.3,0 2,0.7 2,2.1 0,1.1 -0.5,2 -1.7,2.9 z" />
		</g>
		<polygon
   style="display:inline"
   id="polygon159"
   points="-813.1,553.7 -813.1,568 -803,568 -803,565.4 -810.1,565.4 -810.1,553.7 " />
	</g>
</g>
</svg>
